<svg width="10.000000" height="18.000000" viewBox="0 0 10 18" fill="none" xmlns="http://www.w3.org/2000/svg" xmlns:xlink="http://www.w3.org/1999/xlink">
	<desc>
			Created with Pixso.
	</desc>
	<defs/>
	<path id="Vector" d="M9.5 3L6.5 3C5.94775 3 5.5 3.44727 5.5 4L5.5 7L9.5 7C9.61365 6.99707 9.72156 7.05078 9.78918 7.1416C9.85681 7.2334 9.87585 7.35156 9.83997 7.45996L9.09998 9.66016C9.03186 9.8623 8.84314 9.99805 8.63 10L5.5 10L5.5 17.5C5.5 17.7764 5.27612 18 5 18L2.5 18C2.22388 18 2 17.7764 2 17.5L2 10L0.5 10C0.223877 10 0 9.77637 0 9.5L0 7.5C0 7.22363 0.223877 7 0.5 7L2 7L2 4C2 1.79102 3.79089 0 6 0L9.5 0C9.77612 0 10 0.223633 10 0.5L10 2.5C10 2.77637 9.77612 3 9.5 3Z" fill="#000000" fill-opacity="1.000000" fill-rule="nonzero"/>
</svg>
