<svg width="18.000000" height="15.299805" viewBox="0 0 18 15.2998" fill="none" xmlns="http://www.w3.org/2000/svg" xmlns:xlink="http://www.w3.org/1999/xlink">
	<desc>
			Created with Pixso.
	</desc>
	<defs/>
	<path id="Vector" d="M17.9736 2.21777C17.5093 2.83691 16.9479 3.37695 16.3112 3.81738C16.3112 3.97949 16.3112 4.1416 16.3112 4.3125C16.3163 7.25098 15.1423 10.0693 13.0526 12.1348C10.9629 14.2002 8.13208 15.3398 5.19495 15.2988C3.49683 15.3047 1.82056 14.917 0.297241 14.166C0.215088 14.1299 0.162109 14.0488 0.162476 13.959L0.162476 13.8604C0.162476 13.7314 0.26709 13.627 0.396118 13.627C2.06531 13.5713 3.67493 12.9932 4.99719 11.9727C3.48633 11.9424 2.12708 11.0469 1.50146 9.6709C1.46985 9.5957 1.47974 9.50977 1.52747 9.44336C1.5752 9.37695 1.65381 9.34082 1.73511 9.34668C2.19434 9.39355 2.65808 9.35059 3.10107 9.22168C1.43323 8.875 0.180054 7.49023 0.000732422 5.7959C-0.00561523 5.71484 0.0307617 5.63574 0.0968018 5.58789C0.162964 5.54004 0.249146 5.53027 0.324219 5.56152C0.771851 5.75977 1.255 5.86328 1.74414 5.86719C0.282715 4.9082 -0.348511 3.08398 0.207397 1.42578C0.264771 1.26465 0.40271 1.14648 0.570312 1.11328C0.738037 1.08008 0.910767 1.1377 1.02515 1.26465C2.99719 3.36328 5.70691 4.61426 8.58276 4.75293C8.50916 4.45898 8.4729 4.15723 8.47498 3.85352C8.50183 2.26465 9.48511 0.849609 10.9642 0.269531C12.4434 -0.30957 14.1257 0.0625 15.2239 1.20996C15.9723 1.06738 16.6958 0.816406 17.3716 0.463867C17.421 0.433594 17.4839 0.433594 17.5333 0.463867C17.5642 0.513672 17.5642 0.576172 17.5333 0.625977C17.2061 1.37598 16.6532 2.00391 15.9518 2.42383C16.5659 2.35254 17.1693 2.20801 17.749 1.99219C17.7979 1.95898 17.8619 1.95898 17.9108 1.99219C17.9517 2.01172 17.9823 2.04688 17.9944 2.09082C18.0065 2.13379 17.9989 2.18066 17.9736 2.21777Z" fill="#000000" fill-opacity="1.000000" fill-rule="nonzero"/>
</svg>
