<svg width="18.000000" height="18.000000" viewBox="0 0 18 18" fill="none" xmlns="http://www.w3.org/2000/svg" xmlns:xlink="http://www.w3.org/1999/xlink">
	<desc>
			Created with Pixso.
	</desc>
	<defs/>
	<path id="Vector" d="M13 0L5 0C2.23853 0 0 2.23828 0 5L0 13C0 15.7617 2.23853 18 5 18L13 18C15.7614 18 18 15.7617 18 13L18 5C18 2.23828 15.7614 0 13 0ZM16.25 13C16.2445 14.793 14.7926 16.2441 13 16.25L5 16.25C3.2074 16.2441 1.75549 14.793 1.75 13L1.75 5C1.75549 3.20703 3.2074 1.75586 5 1.75L13 1.75C14.7926 1.75586 16.2445 3.20703 16.25 5L16.25 13ZM13.75 5.25C14.3022 5.25 14.75 4.80273 14.75 4.25C14.75 3.69727 14.3022 3.25 13.75 3.25C13.1978 3.25 12.75 3.69727 12.75 4.25C12.75 4.80273 13.1978 5.25 13.75 5.25ZM9 4.5C6.51477 4.5 4.5 6.51465 4.5 9C4.5 11.4854 6.51477 13.5 9 13.5C11.4854 13.5 13.5 11.4854 13.5 9C13.5027 7.80566 13.0294 6.65918 12.1849 5.81543C11.3405 4.9707 10.1943 4.49707 9 4.5ZM6.25 9C6.25 10.5186 7.4812 11.75 9 11.75C10.5188 11.75 11.75 10.5186 11.75 9C11.75 7.48145 10.5188 6.25 9 6.25C7.4812 6.25 6.25 7.48145 6.25 9Z" fill="#000000" fill-opacity="1.000000" fill-rule="evenodd"/>
</svg>
